# xmcd
#
# Track frame offsets:
#	150
#	17321
#	33481
#
# Disc length: 620 seconds
#
# Revision: 0
# Processed by: cddbd v1.5.2PL0 Copyright (c) Steve Scherf et al.
# Submitted via: audiograbber 1.83.01
#
DISCID=15026a03
DTITLE=Various Artist - CDX 666
DYEAR=2018
DGENRE=Country
TTITLE0=Kenny Chesney ft. Mindy Smith - Better Boat
TTITLE1=Dan and Shay - Speechless
TTITLE2=Vince Moreno - You Live in This House
EXTD=
EXTT0=
EXTT1=
EXTT2=
PLAYORDER=
